# xmcd
#
# Track frame offsets: 
#        150
#        21235
#        40090
#        56482
#        76897
#        97200
#        116200
#        134150
#        157052
#        176110
#        192800
#        212337
#
# Disc length: 3023 seconds
#
# Revision: 1
# Processed by: cddbd v1.5.2PL0 Copyright (c) Steve Scherf et al.
# Submitted via: ExactAudioCopy v0.99pb4
#
DISCID=ab0bcd0c
DTITLE=Amii Steward - The Men I Love
DYEAR=1995
DGENRE=Soul
TTITLE0=The Long And Winding Road
TTITLE1=Boogie Down
TTITLE2=Every Breath You Take
TTITLE3=Me And Mrs. Jones (Me And Mr. Jones)
TTITLE4=I Just Wanna Stop
TTITLE5=Sailing
TTITLE6=September Morn
TTITLE7=Overjoyed
TTITLE8=Fire And Rain
TTITLE9=Turn Your Love Around
TTITLE10=Your Song
TTITLE11=Princess Dream (Theme From "La Figlia Del Marajah")
EXTD=ID3G: 0
EXTT0=
EXTT1=
EXTT2=
EXTT3=
EXTT4=
EXTT5=
EXTT6=
EXTT7=
EXTT8=
EXTT9=
EXTT10=
EXTT11=
PLAYORDER=
